<mxfile host="app.diagrams.net" modified="2021-06-05T09:50:32.053Z" agent="5.0 (Macintosh; Intel Mac OS X 10_15_7) AppleWebKit/537.36 (KHTML, like Gecko) Chrome/90.0.4430.212 Safari/537.36" etag="s6hJVynFP0LBBRxT7SvT" version="14.7.6" type="github">
  <diagram id="Tzsab7TEmbpVxt9a82yq" name="Page-1">
    <mxGraphModel dx="1113" dy="695" grid="0" gridSize="10" guides="1" tooltips="1" connect="1" arrows="1" fold="1" page="1" pageScale="1" pageWidth="827" pageHeight="1169" math="0" shadow="0">
      <root>
        <mxCell id="0" />
        <mxCell id="1" parent="0" />
        <mxCell id="Qlbsyc2_m0PB5lbpOPyH-4" value="&lt;font style=&quot;font-size: 28px&quot;&gt;BlockChain&lt;/font&gt;" style="ellipse;whiteSpace=wrap;html=1;fillColor=none;strokeColor=#B1B7B8;strokeWidth=2;" vertex="1" parent="1">
          <mxGeometry x="70" y="120" width="530" height="150" as="geometry" />
        </mxCell>
        <mxCell id="Qlbsyc2_m0PB5lbpOPyH-16" value="" style="aspect=fixed;pointerEvents=1;shadow=0;dashed=0;html=1;labelPosition=center;verticalLabelPosition=bottom;verticalAlign=top;align=center;shape=mxgraph.mscae.enterprise.cluster_server;strokeColor=#FF904F;strokeWidth=1;perimeterSpacing=10;sketch=0;fillColor=#FF904F;" vertex="1" parent="1">
          <mxGeometry x="160" y="230" width="40" height="50" as="geometry" />
        </mxCell>
        <mxCell id="Qlbsyc2_m0PB5lbpOPyH-17" value="" style="aspect=fixed;pointerEvents=1;shadow=0;dashed=0;html=1;labelPosition=center;verticalLabelPosition=bottom;verticalAlign=top;align=center;shape=mxgraph.mscae.enterprise.cluster_server;strokeColor=#FF904F;strokeWidth=1;perimeterSpacing=10;sketch=0;fillColor=#FF904F;" vertex="1" parent="1">
          <mxGeometry x="280" y="100" width="40" height="50" as="geometry" />
        </mxCell>
        <mxCell id="Qlbsyc2_m0PB5lbpOPyH-18" value="" style="aspect=fixed;pointerEvents=1;shadow=0;dashed=0;html=1;labelPosition=center;verticalLabelPosition=bottom;verticalAlign=top;align=center;shape=mxgraph.mscae.enterprise.cluster_server;strokeColor=#FF904F;strokeWidth=1;perimeterSpacing=10;sketch=0;fillColor=#FF904F;" vertex="1" parent="1">
          <mxGeometry x="414" y="100" width="40" height="50" as="geometry" />
        </mxCell>
        <mxCell id="Qlbsyc2_m0PB5lbpOPyH-19" value="" style="aspect=fixed;pointerEvents=1;shadow=0;dashed=0;html=1;labelPosition=center;verticalLabelPosition=bottom;verticalAlign=top;align=center;shape=mxgraph.mscae.enterprise.cluster_server;strokeColor=#FF904F;strokeWidth=1;perimeterSpacing=10;sketch=0;fillColor=#FF904F;" vertex="1" parent="1">
          <mxGeometry x="570" y="197" width="40" height="50" as="geometry" />
        </mxCell>
        <mxCell id="Qlbsyc2_m0PB5lbpOPyH-20" value="" style="pointerEvents=1;shadow=0;dashed=0;html=1;strokeColor=none;fillColor=#505050;labelPosition=center;verticalLabelPosition=bottom;verticalAlign=top;outlineConnect=0;align=center;shape=mxgraph.office.security.lock_protected;sketch=0;" vertex="1" parent="1">
          <mxGeometry x="295" y="120" width="10" height="10" as="geometry" />
        </mxCell>
        <mxCell id="Qlbsyc2_m0PB5lbpOPyH-22" value="" style="pointerEvents=1;shadow=0;dashed=0;html=1;strokeColor=none;fillColor=#505050;labelPosition=center;verticalLabelPosition=bottom;verticalAlign=top;outlineConnect=0;align=center;shape=mxgraph.office.security.lock_protected;sketch=0;" vertex="1" parent="1">
          <mxGeometry x="175" y="250" width="10" height="10" as="geometry" />
        </mxCell>
        <mxCell id="Qlbsyc2_m0PB5lbpOPyH-23" value="" style="pointerEvents=1;shadow=0;dashed=0;html=1;strokeColor=none;fillColor=#505050;labelPosition=center;verticalLabelPosition=bottom;verticalAlign=top;outlineConnect=0;align=center;shape=mxgraph.office.security.lock_protected;sketch=0;" vertex="1" parent="1">
          <mxGeometry x="429" y="120" width="10" height="10" as="geometry" />
        </mxCell>
        <mxCell id="Qlbsyc2_m0PB5lbpOPyH-24" value="" style="pointerEvents=1;shadow=0;dashed=0;html=1;strokeColor=none;fillColor=#505050;labelPosition=center;verticalLabelPosition=bottom;verticalAlign=top;outlineConnect=0;align=center;shape=mxgraph.office.security.lock_protected;sketch=0;" vertex="1" parent="1">
          <mxGeometry x="585" y="217" width="10" height="10" as="geometry" />
        </mxCell>
        <mxCell id="Qlbsyc2_m0PB5lbpOPyH-25" value="" style="shape=image;html=1;verticalAlign=top;verticalLabelPosition=bottom;labelBackgroundColor=#ffffff;imageAspect=0;aspect=fixed;image=https://cdn3.iconfinder.com/data/icons/linecons-free-vector-icons-pack/32/note-128.png;shadow=0;sketch=0;strokeColor=#B1B7B8;strokeWidth=1;fillColor=#FF904F;gradientColor=none;" vertex="1" parent="1">
          <mxGeometry x="210" y="220" width="20" height="20" as="geometry" />
        </mxCell>
        <mxCell id="Qlbsyc2_m0PB5lbpOPyH-26" value="" style="shape=image;html=1;verticalAlign=top;verticalLabelPosition=bottom;labelBackgroundColor=#ffffff;imageAspect=0;aspect=fixed;image=https://cdn3.iconfinder.com/data/icons/linecons-free-vector-icons-pack/32/note-128.png;shadow=0;sketch=0;strokeColor=#B1B7B8;strokeWidth=1;fillColor=#FF904F;gradientColor=none;" vertex="1" parent="1">
          <mxGeometry x="330" y="80" width="20" height="20" as="geometry" />
        </mxCell>
        <mxCell id="Qlbsyc2_m0PB5lbpOPyH-27" value="" style="shape=image;html=1;verticalAlign=top;verticalLabelPosition=bottom;labelBackgroundColor=#ffffff;imageAspect=0;aspect=fixed;image=https://cdn3.iconfinder.com/data/icons/linecons-free-vector-icons-pack/32/note-128.png;shadow=0;sketch=0;strokeColor=#B1B7B8;strokeWidth=1;fillColor=#FF904F;gradientColor=none;" vertex="1" parent="1">
          <mxGeometry x="464" y="90" width="20" height="20" as="geometry" />
        </mxCell>
        <mxCell id="Qlbsyc2_m0PB5lbpOPyH-28" value="" style="shape=image;html=1;verticalAlign=top;verticalLabelPosition=bottom;labelBackgroundColor=#ffffff;imageAspect=0;aspect=fixed;image=https://cdn3.iconfinder.com/data/icons/linecons-free-vector-icons-pack/32/note-128.png;shadow=0;sketch=0;strokeColor=#B1B7B8;strokeWidth=1;fillColor=#FF904F;gradientColor=none;" vertex="1" parent="1">
          <mxGeometry x="620" y="187" width="20" height="20" as="geometry" />
        </mxCell>
        <mxCell id="Qlbsyc2_m0PB5lbpOPyH-31" value="" style="fontColor=#0066CC;verticalAlign=top;verticalLabelPosition=bottom;labelPosition=center;align=center;html=1;outlineConnect=0;gradientColor=none;gradientDirection=north;strokeWidth=7;shape=mxgraph.networks.radio_tower;shadow=0;sketch=0;strokeColor=#5D74A1;perimeterSpacing=4;fillColor=#5D74A1;" vertex="1" parent="1">
          <mxGeometry x="211" y="335" width="30" height="50" as="geometry" />
        </mxCell>
        <mxCell id="Qlbsyc2_m0PB5lbpOPyH-32" value="" style="ellipse;whiteSpace=wrap;html=1;shadow=0;sketch=0;strokeWidth=2;gradientColor=none;strokeColor=#59A18B;dashed=1;fillColor=#EDF7F5;" vertex="1" parent="1">
          <mxGeometry x="65" y="430" width="240" height="134" as="geometry" />
        </mxCell>
        <mxCell id="Qlbsyc2_m0PB5lbpOPyH-35" value="" style="shape=image;html=1;verticalAlign=top;verticalLabelPosition=bottom;labelBackgroundColor=#ffffff;imageAspect=0;aspect=fixed;image=https://cdn4.iconfinder.com/data/icons/internet-networking-and-communication-glyph-24/24/Communication_tower_signal_tower_wifi_antenna_wifi_tower_wireless_antenna-128.png;shadow=0;dashed=1;sketch=0;strokeColor=#000000;strokeWidth=0;fillColor=#5C5C5C;gradientColor=none;" vertex="1" parent="1">
          <mxGeometry x="195" y="457" width="30" height="30" as="geometry" />
        </mxCell>
        <mxCell id="Qlbsyc2_m0PB5lbpOPyH-37" value="" style="fontColor=#0066CC;verticalAlign=top;verticalLabelPosition=bottom;labelPosition=center;align=center;html=1;outlineConnect=0;gradientColor=none;gradientDirection=north;strokeWidth=7;shape=mxgraph.networks.radio_tower;shadow=0;sketch=0;strokeColor=#5D74A1;perimeterSpacing=4;fillColor=#5D74A1;" vertex="1" parent="1">
          <mxGeometry x="325" y="370" width="30" height="50" as="geometry" />
        </mxCell>
        <mxCell id="Qlbsyc2_m0PB5lbpOPyH-39" value="" style="fontColor=#0066CC;verticalAlign=top;verticalLabelPosition=bottom;labelPosition=center;align=center;html=1;outlineConnect=0;gradientColor=none;gradientDirection=north;strokeWidth=7;shape=mxgraph.networks.radio_tower;shadow=0;sketch=0;strokeColor=#5D74A1;perimeterSpacing=4;fillColor=#5D74A1;" vertex="1" parent="1">
          <mxGeometry x="509" y="310" width="30" height="50" as="geometry" />
        </mxCell>
        <mxCell id="Qlbsyc2_m0PB5lbpOPyH-45" value="" style="shape=mxgraph.signs.transportation.car_3;html=1;pointerEvents=1;verticalLabelPosition=bottom;verticalAlign=top;align=center;fillColor=#5C5C5C;strokeColor=none;" vertex="1" parent="1">
          <mxGeometry x="108" y="520" width="50" height="20" as="geometry" />
        </mxCell>
        <mxCell id="Qlbsyc2_m0PB5lbpOPyH-49" value="" style="endArrow=classic;html=1;startSize=3;endSize=4;" edge="1" parent="1">
          <mxGeometry width="50" height="50" relative="1" as="geometry">
            <mxPoint x="162" y="525" as="sourcePoint" />
            <mxPoint x="195" y="492" as="targetPoint" />
          </mxGeometry>
        </mxCell>
        <mxCell id="Qlbsyc2_m0PB5lbpOPyH-50" value="" style="shape=mxgraph.signs.transportation.car_3;html=1;pointerEvents=1;verticalLabelPosition=bottom;verticalAlign=top;align=center;fillColor=#5C5C5C;strokeColor=none;" vertex="1" parent="1">
          <mxGeometry x="241" y="500" width="50" height="20" as="geometry" />
        </mxCell>
        <mxCell id="Qlbsyc2_m0PB5lbpOPyH-51" value="" style="endArrow=classic;html=1;startSize=3;endSize=4;exitX=0.003;exitY=-0.092;exitDx=0;exitDy=0;exitPerimeter=0;" edge="1" parent="1" source="Qlbsyc2_m0PB5lbpOPyH-50">
          <mxGeometry width="50" height="50" relative="1" as="geometry">
            <mxPoint x="172" y="535.0000000000001" as="sourcePoint" />
            <mxPoint x="223" y="488" as="targetPoint" />
          </mxGeometry>
        </mxCell>
        <mxCell id="Qlbsyc2_m0PB5lbpOPyH-52" value="" style="shape=mxgraph.signs.transportation.car_3;html=1;pointerEvents=1;verticalLabelPosition=bottom;verticalAlign=top;align=center;fillColor=#5C5C5C;strokeColor=none;" vertex="1" parent="1">
          <mxGeometry x="102" y="448" width="50" height="20" as="geometry" />
        </mxCell>
        <mxCell id="Qlbsyc2_m0PB5lbpOPyH-53" value="" style="endArrow=classic;html=1;startSize=3;endSize=4;" edge="1" parent="1">
          <mxGeometry width="50" height="50" relative="1" as="geometry">
            <mxPoint x="158" y="464" as="sourcePoint" />
            <mxPoint x="192" y="473" as="targetPoint" />
          </mxGeometry>
        </mxCell>
        <mxCell id="Qlbsyc2_m0PB5lbpOPyH-54" value="" style="endArrow=classic;html=1;startSize=3;endSize=4;strokeWidth=4;fillColor=#f8cecc;strokeColor=#b85450;" edge="1" parent="1">
          <mxGeometry width="50" height="50" relative="1" as="geometry">
            <mxPoint x="210" y="452" as="sourcePoint" />
            <mxPoint x="222" y="397" as="targetPoint" />
          </mxGeometry>
        </mxCell>
        <mxCell id="Qlbsyc2_m0PB5lbpOPyH-55" value="" style="endArrow=classic;html=1;startSize=3;endSize=4;strokeWidth=4;fillColor=#f8cecc;strokeColor=#b85450;" edge="1" parent="1">
          <mxGeometry width="50" height="50" relative="1" as="geometry">
            <mxPoint x="220" y="319" as="sourcePoint" />
            <mxPoint x="194" y="290" as="targetPoint" />
          </mxGeometry>
        </mxCell>
        <mxCell id="Qlbsyc2_m0PB5lbpOPyH-56" value="Data" style="outlineConnect=0;dashed=0;verticalLabelPosition=bottom;verticalAlign=top;align=center;html=1;shape=mxgraph.aws3.encrypted_data;fillColor=#7D7C7C;gradientColor=none;shadow=0;sketch=0;strokeColor=#000000;strokeWidth=0;" vertex="1" parent="1">
          <mxGeometry x="176" y="402" width="24" height="35" as="geometry" />
        </mxCell>
        <mxCell id="Qlbsyc2_m0PB5lbpOPyH-57" value="Data" style="outlineConnect=0;dashed=0;verticalLabelPosition=bottom;verticalAlign=top;align=center;html=1;shape=mxgraph.aws3.encrypted_data;fillColor=#7D7C7C;gradientColor=none;shadow=0;sketch=0;strokeColor=#000000;strokeWidth=0;" vertex="1" parent="1">
          <mxGeometry x="158" y="302" width="24" height="35" as="geometry" />
        </mxCell>
        <mxCell id="Qlbsyc2_m0PB5lbpOPyH-58" value="" style="ellipse;whiteSpace=wrap;html=1;shadow=0;sketch=0;strokeWidth=2;gradientColor=none;strokeColor=#59A18B;dashed=1;fillColor=#EDF7F5;" vertex="1" parent="1">
          <mxGeometry x="410" y="415" width="240" height="134" as="geometry" />
        </mxCell>
        <mxCell id="Qlbsyc2_m0PB5lbpOPyH-59" value="" style="shape=image;html=1;verticalAlign=top;verticalLabelPosition=bottom;labelBackgroundColor=#ffffff;imageAspect=0;aspect=fixed;image=https://cdn4.iconfinder.com/data/icons/internet-networking-and-communication-glyph-24/24/Communication_tower_signal_tower_wifi_antenna_wifi_tower_wireless_antenna-128.png;shadow=0;dashed=1;sketch=0;strokeColor=#000000;strokeWidth=0;fillColor=#5C5C5C;gradientColor=none;" vertex="1" parent="1">
          <mxGeometry x="540" y="442" width="30" height="30" as="geometry" />
        </mxCell>
        <mxCell id="Qlbsyc2_m0PB5lbpOPyH-60" value="" style="shape=mxgraph.signs.transportation.car_3;html=1;pointerEvents=1;verticalLabelPosition=bottom;verticalAlign=top;align=center;fillColor=#5C5C5C;strokeColor=none;" vertex="1" parent="1">
          <mxGeometry x="453" y="505" width="50" height="20" as="geometry" />
        </mxCell>
        <mxCell id="Qlbsyc2_m0PB5lbpOPyH-61" value="" style="endArrow=classic;html=1;startSize=3;endSize=4;" edge="1" parent="1">
          <mxGeometry width="50" height="50" relative="1" as="geometry">
            <mxPoint x="507" y="510" as="sourcePoint" />
            <mxPoint x="540" y="477" as="targetPoint" />
          </mxGeometry>
        </mxCell>
        <mxCell id="Qlbsyc2_m0PB5lbpOPyH-62" value="" style="shape=mxgraph.signs.transportation.car_3;html=1;pointerEvents=1;verticalLabelPosition=bottom;verticalAlign=top;align=center;fillColor=#5C5C5C;strokeColor=none;" vertex="1" parent="1">
          <mxGeometry x="586" y="485" width="50" height="20" as="geometry" />
        </mxCell>
        <mxCell id="Qlbsyc2_m0PB5lbpOPyH-63" value="" style="endArrow=classic;html=1;startSize=3;endSize=4;exitX=0.003;exitY=-0.092;exitDx=0;exitDy=0;exitPerimeter=0;" edge="1" parent="1" source="Qlbsyc2_m0PB5lbpOPyH-62">
          <mxGeometry width="50" height="50" relative="1" as="geometry">
            <mxPoint x="517" y="520.0000000000001" as="sourcePoint" />
            <mxPoint x="568" y="473" as="targetPoint" />
          </mxGeometry>
        </mxCell>
        <mxCell id="Qlbsyc2_m0PB5lbpOPyH-64" value="" style="shape=mxgraph.signs.transportation.car_3;html=1;pointerEvents=1;verticalLabelPosition=bottom;verticalAlign=top;align=center;fillColor=#5C5C5C;strokeColor=none;" vertex="1" parent="1">
          <mxGeometry x="447" y="433" width="50" height="20" as="geometry" />
        </mxCell>
        <mxCell id="Qlbsyc2_m0PB5lbpOPyH-65" value="" style="endArrow=classic;html=1;startSize=3;endSize=4;" edge="1" parent="1">
          <mxGeometry width="50" height="50" relative="1" as="geometry">
            <mxPoint x="503" y="449" as="sourcePoint" />
            <mxPoint x="537" y="458" as="targetPoint" />
          </mxGeometry>
        </mxCell>
        <mxCell id="Qlbsyc2_m0PB5lbpOPyH-66" value="" style="endArrow=classic;html=1;startSize=3;endSize=4;strokeWidth=4;fillColor=#f8cecc;strokeColor=#b85450;" edge="1" parent="1">
          <mxGeometry width="50" height="50" relative="1" as="geometry">
            <mxPoint x="555" y="437" as="sourcePoint" />
            <mxPoint x="529" y="371" as="targetPoint" />
          </mxGeometry>
        </mxCell>
        <mxCell id="Qlbsyc2_m0PB5lbpOPyH-67" value="" style="outlineConnect=0;dashed=0;verticalLabelPosition=bottom;verticalAlign=top;align=center;html=1;shape=mxgraph.aws3.encrypted_data;fillColor=#7D7C7C;gradientColor=none;shadow=0;sketch=0;strokeColor=#000000;strokeWidth=0;" vertex="1" parent="1">
          <mxGeometry x="497" y="385" width="24" height="35" as="geometry" />
        </mxCell>
        <mxCell id="Qlbsyc2_m0PB5lbpOPyH-71" value="" style="aspect=fixed;pointerEvents=1;shadow=0;dashed=0;html=1;labelPosition=center;verticalLabelPosition=bottom;verticalAlign=top;align=center;shape=mxgraph.mscae.enterprise.cluster_server;strokeColor=#FF904F;strokeWidth=1;perimeterSpacing=10;sketch=0;fillColor=#FF904F;" vertex="1" parent="1">
          <mxGeometry x="330" y="240" width="40" height="50" as="geometry" />
        </mxCell>
        <mxCell id="Qlbsyc2_m0PB5lbpOPyH-72" value="" style="pointerEvents=1;shadow=0;dashed=0;html=1;strokeColor=none;fillColor=#505050;labelPosition=center;verticalLabelPosition=bottom;verticalAlign=top;outlineConnect=0;align=center;shape=mxgraph.office.security.lock_protected;sketch=0;" vertex="1" parent="1">
          <mxGeometry x="345" y="260" width="10" height="10" as="geometry" />
        </mxCell>
        <mxCell id="Qlbsyc2_m0PB5lbpOPyH-73" value="" style="shape=image;html=1;verticalAlign=top;verticalLabelPosition=bottom;labelBackgroundColor=#ffffff;imageAspect=0;aspect=fixed;image=https://cdn3.iconfinder.com/data/icons/linecons-free-vector-icons-pack/32/note-128.png;shadow=0;sketch=0;strokeColor=#B1B7B8;strokeWidth=1;fillColor=#FF904F;gradientColor=none;" vertex="1" parent="1">
          <mxGeometry x="380" y="230" width="20" height="20" as="geometry" />
        </mxCell>
        <mxCell id="Qlbsyc2_m0PB5lbpOPyH-74" value="" style="endArrow=classic;html=1;startSize=3;endSize=4;strokeWidth=4;fillColor=#f8cecc;strokeColor=#b85450;" edge="1" parent="1">
          <mxGeometry width="50" height="50" relative="1" as="geometry">
            <mxPoint x="259" y="360" as="sourcePoint" />
            <mxPoint x="336" y="297" as="targetPoint" />
          </mxGeometry>
        </mxCell>
        <mxCell id="Qlbsyc2_m0PB5lbpOPyH-75" value="Data" style="outlineConnect=0;dashed=0;verticalLabelPosition=bottom;verticalAlign=top;align=center;html=1;shape=mxgraph.aws3.encrypted_data;fillColor=#7D7C7C;gradientColor=none;shadow=0;sketch=0;strokeColor=#000000;strokeWidth=0;" vertex="1" parent="1">
          <mxGeometry x="258" y="277" width="24" height="35" as="geometry" />
        </mxCell>
        <mxCell id="Qlbsyc2_m0PB5lbpOPyH-76" value="" style="endArrow=classic;html=1;startSize=3;endSize=4;strokeWidth=4;fillColor=#f8cecc;strokeColor=#b85450;" edge="1" parent="1">
          <mxGeometry width="50" height="50" relative="1" as="geometry">
            <mxPoint x="556" y="325" as="sourcePoint" />
            <mxPoint x="588" y="259" as="targetPoint" />
          </mxGeometry>
        </mxCell>
        <mxCell id="Qlbsyc2_m0PB5lbpOPyH-77" value="Data" style="outlineConnect=0;dashed=0;verticalLabelPosition=bottom;verticalAlign=top;align=center;html=1;shape=mxgraph.aws3.encrypted_data;fillColor=#7D7C7C;gradientColor=none;shadow=0;sketch=0;strokeColor=#000000;strokeWidth=0;" vertex="1" parent="1">
          <mxGeometry x="536" y="250" width="25" height="35" as="geometry" />
        </mxCell>
        <mxCell id="Qlbsyc2_m0PB5lbpOPyH-79" value="" style="endArrow=classic;html=1;startSize=3;endSize=4;strokeWidth=4;fillColor=#f8cecc;strokeColor=#b85450;" edge="1" parent="1">
          <mxGeometry width="50" height="50" relative="1" as="geometry">
            <mxPoint x="493" y="336" as="sourcePoint" />
            <mxPoint x="392" y="300" as="targetPoint" />
          </mxGeometry>
        </mxCell>
        <mxCell id="Qlbsyc2_m0PB5lbpOPyH-80" value="Data" style="outlineConnect=0;dashed=0;verticalLabelPosition=bottom;verticalAlign=top;align=center;html=1;shape=mxgraph.aws3.encrypted_data;fillColor=#7D7C7C;gradientColor=none;shadow=0;sketch=0;strokeColor=#000000;strokeWidth=0;" vertex="1" parent="1">
          <mxGeometry x="459.5" y="267" width="25" height="35" as="geometry" />
        </mxCell>
        <mxCell id="Qlbsyc2_m0PB5lbpOPyH-81" value="model" style="outlineConnect=0;fontColor=#232F3E;gradientColor=none;strokeColor=none;dashed=0;verticalLabelPosition=bottom;verticalAlign=top;align=center;html=1;fontSize=12;fontStyle=0;aspect=fixed;pointerEvents=1;shape=mxgraph.aws4.sagemaker_model;shadow=0;sketch=0;fillColor=#66586D;" vertex="1" parent="1">
          <mxGeometry x="546" y="106.5" width="37" height="37" as="geometry" />
        </mxCell>
        <mxCell id="Qlbsyc2_m0PB5lbpOPyH-82" value="model" style="outlineConnect=0;fontColor=#232F3E;gradientColor=none;strokeColor=none;dashed=0;verticalLabelPosition=bottom;verticalAlign=top;align=center;html=1;fontSize=12;fontStyle=0;aspect=fixed;pointerEvents=1;shape=mxgraph.aws4.sagemaker_model;shadow=0;sketch=0;fillColor=#66586D;" vertex="1" parent="1">
          <mxGeometry x="108" y="173" width="37" height="37" as="geometry" />
        </mxCell>
      </root>
    </mxGraphModel>
  </diagram>
</mxfile>
